<svg width="971" height="971" xmlns="http://www.w3.org/2000/svg" version="1.1" xml:space="preserve" clip-rule="evenodd">
 <g>
  <title>Layer 1</title>
  <g transform="matrix(0.788407 0 0 0.788407 117.687 -62.8366)" id="svg_1">
   <g id="Contorno" transform="matrix(0.966119 -0.258097 0.258097 0.966119 -113.375 164.238)">
    <path d="m307.11289,227.68083c41.649,-11.153 65.387,-63.84 116.801,-63.84c51.414,0 75.153,52.687 116.802,63.84c41.649,11.154 88.566,-22.612 133.092,3.08c44.526,25.692 38.725,83.182 69.214,113.654c30.489,30.471 88.014,24.674 113.721,69.173c25.707,44.5 -8.079,91.39 3.081,133.014c11.16,41.625 63.875,65.35 63.875,116.733c0,51.384 -52.715,75.109 -63.875,116.734c-11.16,41.624 22.626,88.514 -3.081,133.014c-25.707,44.499 -83.232,38.702 -113.721,69.173c-30.489,30.472 -24.688,87.962 -69.214,113.654c-44.526,25.692 -91.443,-8.074 -133.092,3.08c-41.649,11.153 -65.388,63.841 -116.802,63.841c-51.414,0 -75.152,-52.688 -116.801,-63.841c-41.649,-11.154 -88.567,22.612 -133.092,-3.08c-44.526,-25.692 -38.726,-83.182 -69.215,-113.654c-30.489,-30.471 -88.013,-24.674 -113.72,-69.173c-25.707,-44.5 8.079,-91.39 -3.081,-133.014c-11.16,-41.625 -63.878,-65.35 -63.878,-116.734c0,-51.383 52.718,-75.108 63.878,-116.733c11.16,-41.624 -22.626,-88.514 3.081,-133.014c25.707,-44.499 83.231,-38.702 113.72,-69.173c30.489,-30.472 24.689,-87.962 69.215,-113.654c44.525,-25.692 91.443,8.074 133.092,-3.08zm301.874,184.152c3.154,-1.1 3.884,12.02 5.776,24.096c3.601,22.973 15.532,49.742 57.119,40.635c21.274,-4.659 37.058,-40.68 28.175,-64.464c-10.23,-27.391 -39.622,-50.485 -77.395,-49.231c-94.418,3.134 -161.869,99.507 -241.802,288.965c-62.13,147.262 -133.222,286.424 -142.042,262.667c-5.224,-14.072 -2.891,-70.964 -57.305,-63.775c-52.115,6.885 -39.698,89.694 6.596,107.033c55.442,20.764 93.421,-3.418 136.71,-40.576c45.236,-38.83 115.463,-173.532 142.776,-242.178c27.117,-68.156 100.287,-248.834 141.392,-263.172z" fill="rgb(171,133,102)" id="svg_2"/>
   </g>
  </g>
 </g>

</svg>