<?xml version="1.0" encoding="UTF-8" standalone="no"?>
<!DOCTYPE svg PUBLIC "-//W3C//DTD SVG 1.1//EN" "http://www.w3.org/Graphics/SVG/1.1/DTD/svg11.dtd">
<svg width="100%" height="100%" viewBox="0 0 971 971" version="1.1" xmlns="http://www.w3.org/2000/svg" xmlns:xlink="http://www.w3.org/1999/xlink" xml:space="preserve" xmlns:serif="http://www.serif.com/" style="fill-rule:evenodd;clip-rule:evenodd;stroke-linejoin:round;stroke-miterlimit:2;">
    <g transform="matrix(1,0,0,1,-54.6919,-54.9708)">
        <g id="Contorno" transform="matrix(0.966119,-0.258097,0.258097,0.966119,-113.375,164.238)">
            <path d="M417.454,96.01C459.103,84.857 482.841,32.17 534.255,32.17C585.669,32.17 609.408,84.857 651.057,96.01C692.706,107.164 739.623,73.398 784.149,99.09C828.675,124.782 822.874,182.272 853.363,212.744C883.852,243.215 941.377,237.418 967.084,281.917C992.791,326.417 959.005,373.307 970.165,414.931C981.325,456.556 1034.04,480.281 1034.04,531.664C1034.04,583.048 981.325,606.773 970.165,648.398C959.005,690.022 992.791,736.912 967.084,781.412C941.377,825.911 883.852,820.114 853.363,850.585C822.874,881.057 828.675,938.547 784.149,964.239C739.623,989.931 692.706,956.165 651.057,967.319C609.408,978.472 585.669,1031.16 534.255,1031.16C482.841,1031.16 459.103,978.472 417.454,967.319C375.805,956.165 328.887,989.931 284.362,964.239C239.836,938.547 245.636,881.057 215.147,850.585C184.658,820.114 127.134,825.911 101.427,781.412C75.72,736.912 109.506,690.022 98.346,648.398C87.186,606.773 34.468,583.048 34.468,531.664C34.468,480.281 87.186,456.556 98.346,414.931C109.506,373.307 75.72,326.417 101.427,281.917C127.134,237.418 184.658,243.215 215.147,212.744C245.636,182.272 239.836,124.782 284.362,99.09C328.887,73.398 375.805,107.164 417.454,96.01Z" style="fill:rgb(171,133,102);"/>
        </g>
        <g id="Simbolo" transform="matrix(0.90432,0.113665,-0.117803,0.937245,124.693,-35.2333)">
            <path d="M613.011,219.99C617.996,217.767 624.139,224.169 631.052,235.257C644.204,256.352 660.529,284.619 700.073,260.633C714.939,251.616 717.51,215.136 699.719,197.07C679.647,176.69 643.235,168.945 605.361,185.232C510.689,225.945 496.205,422.932 491.146,554.185C484.868,717.05 487.378,875.834 447.427,879.518C431.914,880.949 421.674,808.748 368.546,836.103C322.997,859.554 367.026,922.794 410.8,922.499C477.373,922.051 499.563,884.23 528.348,831.132C556.723,778.793 571.292,622.747 570.691,544.538C570.094,466.887 570.443,238.972 613.011,219.99Z" style="fill:white;"/>
            <path d="M447.943,870.823C450.794,869.955 452.947,867.237 455.134,863.627C459.032,857.194 462.11,847.997 464.732,836.572C478.022,778.677 478.004,667.265 482.374,553.87C485.435,474.449 492.012,371.173 517.332,292.382C534.938,237.596 561.954,194.627 601.788,177.497C643.686,159.479 683.877,168.69 706.081,191.237C718.564,203.911 722.795,224.253 720.171,240.844C718.234,253.096 712.447,263.131 704.745,267.803C685.781,279.305 671.131,280.1 659.537,276.116C643.197,270.501 632.419,253.88 623.531,239.623C620.723,235.12 616.622,230.596 614.868,228.737C612.029,230.782 609.668,234.412 607.295,239.006C601.631,249.972 597.215,266.084 593.623,285.291C579.045,363.229 579.053,490.447 579.468,544.475C580.077,623.788 564.901,781.98 536.126,835.058C505.63,891.309 481.39,930.493 410.861,930.968C385.971,931.135 360.772,913.594 348.507,892.323C340.714,878.808 338.192,863.951 343.001,851.221C346.319,842.438 353.059,834.477 364.413,828.631C379.852,820.682 392.365,820.081 402.628,823.12C417.36,827.482 427.807,840.118 435.733,852.534C439.431,858.327 442.57,863.959 445.553,868.064C446.243,869.014 447.298,870.151 447.943,870.823ZM609.329,212.302L612.504,211.315L615.802,211.102L618.88,211.59L621.578,212.567C626.5,214.832 632.547,221.225 638.574,230.892C642.317,236.896 646.304,243.532 651.103,249.239C655.119,254.015 659.668,258.181 665.427,260.16C673.178,262.824 682.724,261.153 695.402,253.463C699.598,250.918 701.762,244.964 702.817,238.289C704.681,226.502 702.224,211.909 693.356,202.904C675.416,184.688 642.786,178.41 608.934,192.968C573.028,208.408 549.969,248.015 534.099,297.399C509.206,374.861 502.926,476.417 499.917,554.5C495.499,669.116 495.304,781.716 481.872,840.234C478.088,856.719 473.099,869.197 467.053,876.876C461.674,883.707 455.308,887.299 448.262,887.949L445.328,887.912L442.596,887.318L438.193,885.107C434.367,882.442 430.305,876.867 426.038,869.919C422.178,863.635 417.84,856.095 412.271,849.759C407.679,844.534 402.256,840.058 395.151,838.757C388.91,837.614 381.582,838.99 372.678,843.574C365.812,847.109 361.5,851.711 359.494,857.022C356.316,865.435 358.697,875.156 363.847,884.088C373.153,900.227 391.854,914.157 410.739,914.03C473.361,913.609 493.493,877.153 520.571,827.207C548.545,775.606 562.506,621.707 561.914,544.601C561.494,489.918 561.593,361.165 576.347,282.283C580.297,261.166 585.356,243.508 591.583,231.451C596.651,221.64 602.798,215.214 609.329,212.302Z" style="fill:white;"/>
        </g>
    </g>
</svg>
